name C:\Users\u0101727\Documents\MyRepositories\upper-imu-dc\OpenSim\subject0\MA\ResultsMA\grid_3nodes_9dim\angles_1.mot
datacolumns 10
datarows 28
range 172.63000000 172.90000000
endheader 
time	clav_prot	clav_elev	scapula_abduction	scapula_elevation	scapula_upward_rot	scapula_winging	plane_elv	shoulder_elv	axial_rot	
        172.63000000	        -50.00000000	        -10.00000000	        -12.50000000	        -10.00000000	          0.00000000	         10.00000000	         90.00000000	         45.00000000	         90.00000000	
        172.64000000	        -32.50000000	        -10.00000000	        -12.50000000	        -10.00000000	          0.00000000	         10.00000000	         90.00000000	         45.00000000	         90.00000000	
        172.65000000	        -15.00000000	        -10.00000000	        -12.50000000	        -10.00000000	          0.00000000	         10.00000000	         90.00000000	         45.00000000	         90.00000000	
        172.66000000	        -50.00000000	          5.00000000	        -12.50000000	        -10.00000000	          0.00000000	         10.00000000	         90.00000000	         45.00000000	         90.00000000	
        172.67000000	        -32.50000000	          5.00000000	        -12.50000000	        -10.00000000	          0.00000000	         10.00000000	         90.00000000	         45.00000000	         90.00000000	
        172.68000000	        -15.00000000	          5.00000000	        -12.50000000	        -10.00000000	          0.00000000	         10.00000000	         90.00000000	         45.00000000	         90.00000000	
        172.69000000	        -50.00000000	         20.00000000	        -12.50000000	        -10.00000000	          0.00000000	         10.00000000	         90.00000000	         45.00000000	         90.00000000	
        172.70000000	        -32.50000000	         20.00000000	        -12.50000000	        -10.00000000	          0.00000000	         10.00000000	         90.00000000	         45.00000000	         90.00000000	
        172.71000000	        -15.00000000	         20.00000000	        -12.50000000	        -10.00000000	          0.00000000	         10.00000000	         90.00000000	         45.00000000	         90.00000000	
        172.72000000	        -50.00000000	        -10.00000000	         15.00000000	        -10.00000000	          0.00000000	         10.00000000	         90.00000000	         45.00000000	         90.00000000	
        172.73000000	        -32.50000000	        -10.00000000	         15.00000000	        -10.00000000	          0.00000000	         10.00000000	         90.00000000	         45.00000000	         90.00000000	
        172.74000000	        -15.00000000	        -10.00000000	         15.00000000	        -10.00000000	          0.00000000	         10.00000000	         90.00000000	         45.00000000	         90.00000000	
        172.75000000	        -50.00000000	          5.00000000	         15.00000000	        -10.00000000	          0.00000000	         10.00000000	         90.00000000	         45.00000000	         90.00000000	
        172.76000000	        -32.50000000	          5.00000000	         15.00000000	        -10.00000000	          0.00000000	         10.00000000	         90.00000000	         45.00000000	         90.00000000	
        172.77000000	        -15.00000000	          5.00000000	         15.00000000	        -10.00000000	          0.00000000	         10.00000000	         90.00000000	         45.00000000	         90.00000000	
        172.78000000	        -50.00000000	         20.00000000	         15.00000000	        -10.00000000	          0.00000000	         10.00000000	         90.00000000	         45.00000000	         90.00000000	
        172.79000000	        -32.50000000	         20.00000000	         15.00000000	        -10.00000000	          0.00000000	         10.00000000	         90.00000000	         45.00000000	         90.00000000	
        172.80000000	        -15.00000000	         20.00000000	         15.00000000	        -10.00000000	          0.00000000	         10.00000000	         90.00000000	         45.00000000	         90.00000000	
        172.81000000	        -50.00000000	        -10.00000000	        -40.00000000	          0.00000000	          0.00000000	         10.00000000	         90.00000000	         45.00000000	         90.00000000	
        172.82000000	        -32.50000000	        -10.00000000	        -40.00000000	          0.00000000	          0.00000000	         10.00000000	         90.00000000	         45.00000000	         90.00000000	
        172.83000000	        -15.00000000	        -10.00000000	        -40.00000000	          0.00000000	          0.00000000	         10.00000000	         90.00000000	         45.00000000	         90.00000000	
        172.84000000	        -50.00000000	          5.00000000	        -40.00000000	          0.00000000	          0.00000000	         10.00000000	         90.00000000	         45.00000000	         90.00000000	
        172.85000000	        -32.50000000	          5.00000000	        -40.00000000	          0.00000000	          0.00000000	         10.00000000	         90.00000000	         45.00000000	         90.00000000	
        172.86000000	        -15.00000000	          5.00000000	        -40.00000000	          0.00000000	          0.00000000	         10.00000000	         90.00000000	         45.00000000	         90.00000000	
        172.87000000	        -50.00000000	         20.00000000	        -40.00000000	          0.00000000	          0.00000000	         10.00000000	         90.00000000	         45.00000000	         90.00000000	
        172.88000000	        -32.50000000	         20.00000000	        -40.00000000	          0.00000000	          0.00000000	         10.00000000	         90.00000000	         45.00000000	         90.00000000	
        172.89000000	        -15.00000000	         20.00000000	        -40.00000000	          0.00000000	          0.00000000	         10.00000000	         90.00000000	         45.00000000	         90.00000000	
        172.90000000	        -50.00000000	        -10.00000000	        -12.50000000	          0.00000000	          0.00000000	         10.00000000	         90.00000000	         45.00000000	         90.00000000	
